<svg width="101" height="90" viewBox="0 0 101 90" fill="none" xmlns="http://www.w3.org/2000/svg">
<path d="M91.7344 9.58486C89.2915 7.18072 86.3887 5.27316 83.1925 3.97158C79.9962 2.67 76.5694 2 73.1086 2C69.6478 2 66.221 2.67 63.0248 3.97158C59.8286 5.27316 56.9258 7.18072 54.4828 9.58486L50.7333 13.3098L46.9838 9.58486C44.5409 7.18072 41.6381 5.27316 38.4419 3.97158C35.2456 2.67 31.8189 2 28.358 2C24.8972 2 21.4704 2.67 18.2742 3.97158C15.078 5.27316 12.1752 7.18072 9.73225 9.58486C-0.59106 19.7091 -1.22409 36.8057 11.7774 49.7953L50.7333 88L89.6892 49.7953C102.691 36.8057 102.058 19.7091 91.7344 9.58486Z" stroke="#211D19" stroke-width="2.7" stroke-linecap="round" stroke-linejoin="round"/>
<path d="M45.7273 50.899L45.7281 50.898C47.1776 49.2882 49.1434 48.3838 51.1932 48.3838C53.2429 48.3838 55.2088 49.2882 56.6582 50.898L56.6591 50.899M39 40C40.0035 41.0732 41.365 41.6768 42.7841 41.6768C44.2032 41.6768 45.5641 41.0738 46.5677 40.0006M55.8182 40C56.8217 41.0732 58.1832 41.6768 59.6023 41.6768C61.0214 41.6768 62.3823 41.0738 63.3859 40.0006" stroke="#211D19" stroke-width="2.7" stroke-linecap="round" stroke-linejoin="round"/>
</svg>
